<svg width="11" height="15" viewBox="0 0 11 15" fill="none" xmlns="http://www.w3.org/2000/svg">
<path fill-rule="evenodd" clip-rule="evenodd" d="M1.09787 9.66033C1.15883 9.59921 1.23125 9.55073 1.31098 9.51764C1.39071 9.48456 1.47618 9.46753 1.5625 9.46753C1.64882 9.46753 1.73429 9.48456 1.81402 9.51764C1.89375 9.55073 1.96616 9.59921 2.02712 9.66033L5.5 13.1345L8.97287 9.66033C9.0961 9.5371 9.26323 9.46787 9.4375 9.46787C9.61176 9.46787 9.7789 9.5371 9.90212 9.66033C10.0253 9.78355 10.0946 9.95068 10.0946 10.125C10.0946 10.2992 10.0253 10.4664 9.90212 10.5896L5.96462 14.5271C5.90366 14.5882 5.83124 14.6367 5.75152 14.6698C5.67179 14.7028 5.58632 14.7199 5.5 14.7199C5.41368 14.7199 5.32821 14.7028 5.24848 14.6698C5.16875 14.6367 5.09633 14.5882 5.03537 14.5271L1.09787 10.5896C1.03676 10.5286 0.988271 10.4562 0.955187 10.3765C0.922104 10.2967 0.905075 10.2113 0.905075 10.125C0.905075 10.0386 0.922104 9.95316 0.955187 9.87343C0.988271 9.79371 1.03676 9.72129 1.09787 9.66033Z" fill="#616161"/>
<path fill-rule="evenodd" clip-rule="evenodd" d="M5.5 0.28125C5.67405 0.28125 5.84097 0.350391 5.96404 0.473461C6.08711 0.596532 6.15625 0.763452 6.15625 0.9375V12.75C6.15625 12.924 6.08711 13.091 5.96404 13.214C5.84097 13.3371 5.67405 13.4062 5.5 13.4062C5.32595 13.4062 5.15903 13.3371 5.03596 13.214C4.91289 13.091 4.84375 12.924 4.84375 12.75V0.9375C4.84375 0.763452 4.91289 0.596532 5.03596 0.473461C5.15903 0.350391 5.32595 0.28125 5.5 0.28125Z" fill="#616161"/>
</svg>
