<svg width="11" height="15" viewBox="0 0 11 15" fill="none" xmlns="http://www.w3.org/2000/svg">
<path fill-rule="evenodd" clip-rule="evenodd" d="M9.90213 5.33967C9.84117 5.40079 9.76875 5.44927 9.68902 5.48236C9.60929 5.51544 9.52382 5.53247 9.4375 5.53247C9.35118 5.53247 9.26571 5.51544 9.18598 5.48236C9.10625 5.44927 9.03384 5.40079 8.97288 5.33967L5.5 1.86548L2.02713 5.33967C1.9039 5.4629 1.73677 5.53213 1.5625 5.53213C1.38824 5.53213 1.2211 5.4629 1.09788 5.33967C0.974651 5.21645 0.905424 5.04932 0.905424 4.87505C0.905424 4.70078 0.974651 4.53365 1.09788 4.41042L5.03538 0.472921C5.09634 0.411807 5.16876 0.36332 5.24848 0.330236C5.32821 0.297153 5.41368 0.280124 5.5 0.280124C5.58632 0.280124 5.67179 0.297153 5.75152 0.330236C5.83125 0.36332 5.90367 0.411807 5.96463 0.472921L9.90213 4.41042C9.96324 4.47138 10.0117 4.5438 10.0448 4.62353C10.0779 4.70326 10.0949 4.78873 10.0949 4.87505C10.0949 4.96137 10.0779 5.04684 10.0448 5.12657C10.0117 5.20629 9.96324 5.27871 9.90213 5.33967Z" fill="#616161"/>
<path fill-rule="evenodd" clip-rule="evenodd" d="M5.5 14.7188C5.32595 14.7188 5.15903 14.6496 5.03596 14.5265C4.91289 14.4035 4.84375 14.2365 4.84375 14.0625L4.84375 2.25C4.84375 2.07595 4.91289 1.90903 5.03596 1.78596C5.15903 1.66289 5.32595 1.59375 5.5 1.59375C5.67405 1.59375 5.84097 1.66289 5.96404 1.78596C6.08711 1.90903 6.15625 2.07595 6.15625 2.25L6.15625 14.0625C6.15625 14.2365 6.08711 14.4035 5.96404 14.5265C5.84097 14.6496 5.67405 14.7188 5.5 14.7188Z" fill="#616161"/>
</svg>
